# xmcd
#
# Track frame offsets:
#	150
#	15525
#	30540
#	42270
#	57287
#	69210
#	84830
#	105367
#	122307
#	138520
#	151980
#	166607
#	181627
#	194337
#
# Disc length: 2788 seconds
#
# Revision: 1
# Processed by: cddbd v1.5PL3 Copyright (c) Steve Scherf et al.
# Submitted via: EasyCDDAExtractor 5.0.6
#
DISCID=980ae20e
DTITLE=余天 - 20年來最暢銷國語金曲系列3
DYEAR=1900
DGENRE=POP
TTITLE0=午夜夢迴時
TTITLE1=可愛的家園
TTITLE2=緣盡情依舊
TTITLE3=情網
TTITLE4=新娘與新郎
TTITLE5=未完成的戀曲
TTITLE6=又見聖誕紅
TTITLE7=藏在幸福裡
TTITLE8=殘情
TTITLE9=情人山
TTITLE10=珍重
TTITLE11=期待
TTITLE12=不要離開我
TTITLE13=愛不再遙遠
EXTD=
EXTT0=
EXTT1=
EXTT2=
EXTT3=
EXTT4=
EXTT5=
EXTT6=
EXTT7=
EXTT8=
EXTT9=
EXTT10=
EXTT11=
EXTT12=
EXTT13=
PLAYORDER=
